<?xml version="1.0" encoding="utf-8"?>
<!-- Generator: Adobe Illustrator 23.0.3, SVG Export Plug-In . SVG Version: 6.00 Build 0)  -->
<svg version="1.1" id="Layer_1" xmlns="http://www.w3.org/2000/svg" xmlns:xlink="http://www.w3.org/1999/xlink" x="0px" y="0px"
	 width="205px" height="30px" viewBox="0 0 205 30" style="enable-background:new 0 0 205 30;" xml:space="preserve">
<style type="text/css">
	.st0{fill:#FFFFFF;}
</style>
<g>
	<path class="st0" d="M1.9,12.9c0-1.1,0-2-0.1-2.9h1.1L3,12.1H3c0.8-1.4,2-2.4,4-2.4c1.7,0,3,1.1,3.5,2.6h0.1
		c0.3-0.7,0.8-1.3,1.2-1.6c0.8-0.6,1.6-1,2.9-1c1.2,0,4,0.7,4,5.3v7.2h-1.2v-7.1c0-2.7-1.1-4.4-3.2-4.4c-1.5,0-2.7,1.1-3.2,2.4
		c-0.1,0.4-0.2,0.8-0.2,1.2v7.8H9.7v-7.6c0-2.2-1-3.8-3-3.8c-1.6,0-2.9,1.3-3.4,2.7c-0.1,0.4-0.2,0.8-0.2,1.2v7.5H1.9V12.9L1.9,12.9
		z"/>
	<path class="st0" d="M20.7,10l3.2,8c0.3,0.9,0.7,1.9,0.9,2.6h0.1c0.3-0.7,0.6-1.7,0.9-2.7l3-7.9H30l-3.7,9.1
		c-1.5,3.8-2.5,6-4.1,7.4c-1,0.8-1.9,1.2-2.1,1.3l-0.4-1c0.6-0.2,1.4-0.7,2.1-1.3c0.6-0.6,1.4-1.6,2-3.1C24,22.1,24,22,24,21.8
		c0-0.1-0.1-0.3-0.2-0.5L19.4,10H20.7L20.7,10z"/>
	<g>
		<polygon class="st0" points="36.2,6.5 31,6.5 31,2 46.9,2 46.9,6.5 41.6,6.5 41.6,22.3 36.2,22.3 36.2,6.5 		"/>
		<path class="st0" d="M55.6,13.6l-0.9-3.6c-0.3-1.1-0.7-2.8-1-4h-0.1c-0.3,1.2-0.6,2.9-0.9,4l-0.9,3.6H55.6L55.6,13.6z M51.1,17.6
			L50,22.3h-5.6L50.2,2h7.2l6.1,20.3h-5.9l-1.3-4.7H51.1L51.1,17.6z"/>
		<path class="st0" d="M75.7,22.3L74.2,19c-0.6-1.3-1.1-2.4-1.6-3.5h-0.1c-0.4,1.2-0.8,2.2-1.3,3.5l-1.4,3.3h-6.2L69.5,12L64,2h6.2
			l1.4,3.2c0.5,1.2,0.9,2.2,1.4,3.4H73c0.5-1.3,0.8-2.2,1.2-3.3L75.4,2h6.2l-5.5,9.9L82,22.3H75.7L75.7,22.3z"/>
	</g>
	<g>
		<path class="st0" d="M86.5,16c0,0.4,0,0.7,0.1,1.1c0.4,1.8,2,3,3.9,3c2.7,0,4.3-2.2,4.3-5.5c0-2.9-1.5-5.3-4.2-5.3
			c-1.8,0-3.5,1.2-4,3.2c-0.1,0.3-0.1,0.7-0.1,1V16L86.5,16z M83.9,12.2c0-1.8,0-3.3-0.1-4.7h2.3l0.1,2.5h0.1c1-1.8,2.8-2.8,5.1-2.8
			c3.5,0,6.1,2.9,6.1,7.3c0,5.1-3.2,7.7-6.5,7.7c-1.9,0-3.6-0.8-4.4-2.2h-0.1v7.8h-2.6V12.2L83.9,12.2z"/>
		<path class="st0" d="M100,12c0-1.7,0-3.1-0.1-4.5h2.3l0.1,2.8h0.1c0.7-1.9,2.3-3.1,4-3.1c0.3,0,0.5,0,0.7,0.1v2.5
			c-0.3,0-0.5-0.1-0.9-0.1c-1.8,0-3.1,1.4-3.5,3.3c-0.1,0.4-0.1,0.8-0.1,1.2v7.7H100V12L100,12z"/>
		<path class="st0" d="M117.7,13.3c0-1.7-0.7-4.2-3.6-4.2c-2.7,0-3.8,2.4-4,4.2H117.7L117.7,13.3z M110.1,15.1
			c0.1,3.5,2.3,4.9,4.9,4.9c1.9,0,3-0.3,4-0.7l0.5,1.9c-0.9,0.4-2.5,0.9-4.8,0.9c-4.4,0-7-2.9-7-7.2c0-4.3,2.6-7.7,6.8-7.7
			c4.7,0,5.9,4.1,5.9,6.7c0,0.5,0,0.9-0.1,1.2H110.1L110.1,15.1z"/>
		<path class="st0" d="M125.3,16c0,0.4,0,0.7,0.1,1.1c0.4,1.8,2,3,3.9,3c2.8,0,4.3-2.2,4.3-5.5c0-2.9-1.5-5.3-4.2-5.3
			c-1.8,0-3.5,1.2-4,3.2c-0.1,0.3-0.1,0.7-0.1,1V16L125.3,16z M122.7,12.2c0-1.8,0-3.3-0.1-4.7h2.3l0.1,2.5h0.1
			c1-1.8,2.8-2.8,5.1-2.8c3.5,0,6.1,2.9,6.1,7.3c0,5.1-3.2,7.7-6.5,7.7c-1.9,0-3.6-0.8-4.4-2.2h-0.1v7.8h-2.6V12.2L122.7,12.2z"/>
	</g>
	<g>
		<path class="st0" d="M143.3,20.9c2.5,0,4.5-2.2,4.5-5.3c0-2.2-1.2-5.2-4.4-5.2c-3.1,0-4.4,2.7-4.4,5.3
			C138.9,18.7,140.8,20.9,143.3,20.9L143.3,20.9L143.3,20.9z M143.2,21.9c-3.1,0-5.5-2.4-5.5-6.2c0-4.1,2.7-6.4,5.7-6.4
			c3.3,0,5.6,2.5,5.6,6.2C148.9,20,145.9,21.9,143.2,21.9L143.2,21.9L143.2,21.9z"/>
		<path class="st0" d="M165.2,5.4c-0.5-0.4-1.4-0.7-2.4-0.7c-2.5,0-3.2,2-3.2,4.3v0.7h6.8v12h-1.2v-11h-5.6v11h-1.2v-11h-5.8v11
			h-1.2v-11h-1.7v-1h1.7V9.1c0-1.6,0.4-3.1,1.4-4.1c0.6-0.6,1.6-1.1,2.7-1.1c0.8,0,1.7,0.3,2.1,0.6l-0.4,0.9
			c-0.4-0.3-1.1-0.5-1.8-0.5c-0.8,0-1.4,0.3-1.8,0.8c-0.7,0.8-1,2.2-1,3.5v0.5h5.8V8.9c0-3.1,1.4-5.2,4.6-5.2c1,0,2.2,0.4,2.7,0.8
			L165.2,5.4L165.2,5.4z"/>
		<path class="st0" d="M178,21.1c-0.5,0.2-1.8,0.8-3.5,0.8c-3.4,0-5.7-2.5-5.7-6.1c0-3.8,2.6-6.4,6.2-6.4c1.5,0,2.7,0.4,3.1,0.7
			l-0.4,1c-0.6-0.3-1.5-0.7-2.8-0.7c-3.2,0-4.9,2.4-4.9,5.3c0,3.1,2,5.2,4.7,5.2c1.4,0,2.3-0.4,3-0.7L178,21.1L178,21.1z"/>
		<path class="st0" d="M188.1,14.6c0-1.7-0.7-4.2-3.6-4.2c-2.6,0-3.8,2.3-4,4.2H188.1L188.1,14.6z M180.4,15.5
			c0,3.8,2.1,5.3,4.6,5.3c1.7,0,2.6-0.3,3.3-0.7l0.3,0.9c-0.4,0.2-1.7,0.8-3.8,0.8c-3.4,0-5.6-2.5-5.6-6c0-4,2.3-6.5,5.4-6.5
			c3.9,0,4.7,3.7,4.7,5.4c0,0.3,0,0.5-0.1,0.7H180.4L180.4,15.5z"/>
	</g>
	<polygon class="st0" points="191.6,3.8 189.1,3.8 189.1,3 195,3 195,3.8 192.6,3.8 192.6,10.5 191.6,10.5 191.6,3.8 	"/>
	<polygon class="st0" points="196.6,3 197.9,3 200.3,9.3 202.6,3 204,3 204,10.5 203,10.5 203,4.3 203,4.3 200.7,10.5 199.9,10.5 
		197.5,4.3 197.5,4.3 197.5,10.5 196.6,10.5 196.6,3 	"/>
</g>
</svg>
