<?xml version="1.0" encoding="utf-8"?>
<!-- Generator: Adobe Illustrator 23.0.3, SVG Export Plug-In . SVG Version: 6.00 Build 0)  -->
<svg version="1.1" id="Layer_1" xmlns="http://www.w3.org/2000/svg" xmlns:xlink="http://www.w3.org/1999/xlink" x="0px" y="0px"
	 width="64px" height="64px" viewBox="0 0 64 64" style="enable-background:new 0 0 64 64;" xml:space="preserve">
<style type="text/css">
	.st0{fill:#FFCD05;}
</style>
<path class="st0" d="M61.9,24.8c-0.1-0.4-0.5-0.7-0.9-0.8l-19.4-3L32.9,2.6c-0.2-0.4-0.6-0.6-1-0.6c-0.4,0-0.8,0.2-1,0.6L22.3,21
	L2.9,24c-0.4,0.1-0.7,0.4-0.9,0.8c-0.1,0.4,0,0.9,0.3,1.2l14.1,14.4L13,60.6c-0.1,0.4,0.1,0.8,0.4,1.1c0.3,0.3,0.8,0.3,1.1,0.1
	l17.4-9.6l17.4,9.6c0.2,0.1,0.3,0.1,0.5,0.1c0.2,0,0.4-0.1,0.6-0.2c0.3-0.3,0.5-0.7,0.4-1.1l-3.3-20.3l14.1-14.4
	C61.9,25.6,62,25.2,61.9,24.8z"/>
</svg>
