<?xml version="1.0" encoding="utf-8"?>
<!-- Generator: Adobe Illustrator 23.0.3, SVG Export Plug-In . SVG Version: 6.00 Build 0)  -->
<svg version="1.1" id="Layer_1" xmlns="http://www.w3.org/2000/svg" xmlns:xlink="http://www.w3.org/1999/xlink" x="0px" y="0px"
	 width="64px" height="64px" viewBox="0 0 64 64" style="enable-background:new 0 0 64 64;" xml:space="preserve">
<style type="text/css">
	.st0{fill:#FFCD05;}
</style>
<path class="st0" d="M14.1,61.9c-0.2,0-0.4-0.1-0.6-0.2c-0.3-0.3-0.5-0.7-0.4-1.1l3.3-20.3L2.3,25.9C2,25.6,1.9,25.2,2,24.8
	c0.1-0.4,0.5-0.7,0.9-0.8l19.4-3L31,2.6c0.2-0.4,0.6-0.6,1-0.6l0,0c0.4,0,0.8,0.2,1,0.6L41.6,21L61,24c0.4,0.1,0.7,0.4,0.9,0.8
	c0.1,0.4,0,0.9-0.3,1.2L47.6,40.3l3.3,20.3c0.1,0.4-0.1,0.8-0.4,1.1c-0.3,0.3-0.8,0.3-1.1,0.1l-17.4-9.6l-17.4,9.6
	C14.4,61.9,14.2,61.9,14.1,61.9z M5.3,25.9l12.9,13.2c0.3,0.3,0.4,0.6,0.3,1l-3,18.6l16-8.8c0.3-0.2,0.7-0.2,1,0l16,8.8l-3-18.6
	c-0.1-0.4,0.1-0.7,0.3-1l12.9-13.2l-17.8-2.7c-0.4-0.1-0.7-0.3-0.8-0.6l-8-17l-8,17c-0.2,0.3-0.5,0.6-0.8,0.6L5.3,25.9z"/>
</svg>
