<?xml version="1.0" encoding="utf-8"?>
<!-- Generator: Adobe Illustrator 23.0.3, SVG Export Plug-In . SVG Version: 6.00 Build 0)  -->
<svg version="1.1" id="Layer_1" xmlns="http://www.w3.org/2000/svg" xmlns:xlink="http://www.w3.org/1999/xlink" x="0px" y="0px"
	 width="46px" height="46px" viewBox="0 0 46 46" style="enable-background:new 0 0 46 46;" xml:space="preserve">
<style type="text/css">
	.st0{fill:#E9E9E9;}
	.st1{fill:#005074;}
</style>
<rect class="st0" width="10" height="10"/>
<rect class="st1" width="10" height="10"/>
<rect x="24" y="0" class="st0" width="10" height="10"/>
<rect x="36" y="0" class="st0" width="10" height="10"/>
<rect x="12" y="0" class="st0" width="10" height="10"/>
<rect y="12" class="st1" width="10" height="10"/>
<rect x="24" y="12" class="st0" width="10" height="10"/>
<rect x="36" y="12" class="st0" width="10" height="10"/>
<rect x="12" y="12" class="st0" width="10" height="10"/>
<rect y="24" class="st0" width="10" height="10"/>
<rect x="24" y="24" class="st0" width="10" height="10"/>
<rect x="36" y="24" class="st0" width="10" height="10"/>
<rect x="12" y="24" class="st0" width="10" height="10"/>
<rect y="36" class="st0" width="10" height="10"/>
<rect x="24" y="36" class="st0" width="10" height="10"/>
<rect x="36" y="36" class="st0" width="10" height="10"/>
<rect x="12" y="36" class="st0" width="10" height="10"/>
</svg>
